<svg width="134" height="134" viewBox="0 0 134 134" fill="none" xmlns="http://www.w3.org/2000/svg">
<path d="M114.439 40.8212C109.663 32.572 102.809 25.7178 94.5593 20.9414C86.2274 15.9748 76.7015 13.3682 67.0017 13.4007C57.3612 13.3515 47.8868 15.9096 39.5811 20.8043C31.2178 25.5856 24.2653 32.4907 19.4271 40.8212C14.5929 49.1457 12.0834 58.6158 12.1606 68.2418C12.0118 79.875 15.671 91.2378 22.5804 100.598C29.2326 109.936 38.6966 116.902 49.5896 120.478C50.0793 120.615 50.5941 120.637 51.0936 120.542C51.5932 120.447 52.0639 120.237 52.4688 119.929C52.7842 119.66 53.0345 119.323 53.2007 118.943C53.367 118.563 53.4448 118.15 53.4285 117.736V107.59L51.7833 107.864C50.4692 108.078 49.1382 108.17 47.8073 108.139C46.1498 108.091 44.4991 107.908 42.8716 107.59C41.1174 107.26 39.4702 106.507 38.073 105.397C36.6218 104.326 35.5237 102.846 34.9196 101.146L34.097 99.3641C33.5095 98.0932 32.7731 96.8966 31.9034 95.7994C31.1012 94.6333 30.0162 93.6898 28.75 93.0573L28.3387 92.646C27.9915 92.4054 27.6699 92.1297 27.379 91.8234C27.1056 91.5381 26.8747 91.2149 26.6935 90.8637C26.6021 90.4981 26.7392 90.2239 27.1048 90.0411C27.7598 89.7916 28.4638 89.6977 29.1613 89.7669L30.5324 89.904C31.823 90.2664 33.0327 90.8713 34.097 91.6863C35.4991 92.6517 36.6697 93.916 37.5246 95.3881C38.5262 97.1575 39.9365 98.6618 41.6377 99.7754C42.971 100.7 44.5409 101.223 46.1621 101.283C47.5388 101.33 48.9168 101.238 50.2751 101.009C51.4125 100.779 52.5175 100.411 53.5656 99.9125C53.7787 97.1122 54.9959 94.4832 56.9932 92.5089C54.5398 92.2368 52.1106 91.7785 49.7267 91.1379C47.3826 90.5054 45.126 89.5843 43.0087 88.3958C40.8048 87.2307 38.8489 85.6474 37.2504 83.7344C35.562 81.4706 34.307 78.914 33.5486 76.1937C32.4994 72.7277 31.9907 69.1207 32.0405 65.4997C31.8916 60.0827 33.8587 54.8207 37.5246 50.8297C35.8794 46.4424 36.1079 41.5982 38.2101 36.2969C39.5811 35.7484 41.6377 36.1598 44.2426 37.2566C46.3201 38.0162 48.3368 38.9329 50.2751 39.9986C51.6462 40.6841 52.4688 41.3697 53.2914 41.9181C62.2649 39.4494 71.7384 39.4494 80.7119 41.9181L83.454 40.1357C85.5417 38.8765 87.7454 37.8206 90.0349 36.9824C91.83 36.1381 93.8501 35.8976 95.7932 36.2969C97.8954 41.5982 98.0783 46.4424 96.3416 50.8297C100.057 54.7992 102.075 60.0637 101.963 65.4997C102.042 69.1128 101.58 72.7175 100.592 76.1937C99.8072 78.93 98.5039 81.49 96.7529 83.7344C95.1528 85.6822 93.1991 87.3103 90.9946 88.5329C88.8354 89.7346 86.5318 90.6561 84.1395 91.275C81.7556 91.9156 79.3265 92.3739 76.873 92.646C79.4323 94.6569 80.7119 97.993 80.7119 102.655V117.736C80.7158 118.127 80.8035 118.513 80.969 118.868C81.1346 119.223 81.3741 119.538 81.6716 119.792C82.0557 120.088 82.503 120.292 82.9785 120.387C83.4541 120.482 83.9452 120.466 84.4137 120.341C95.3067 116.765 104.771 109.799 111.423 100.461C118.276 91.1758 121.932 79.9185 121.843 68.3789C121.917 58.6919 119.358 49.1669 114.439 40.8212Z" fill="black"/>
</svg>
