<svg width="109" height="109" viewBox="0 0 109 109" fill="none" xmlns="http://www.w3.org/2000/svg">
<path d="M54.5125 92.5562C33.0625 92.5562 16 75.7125 16 54.5375C16 53.575 16 52.1313 16 51.1688C16 50.2063 16.4875 49.2438 17.4625 48.2812C18.925 47.3187 20.3875 47.3187 21.85 48.2812C22.3375 48.7625 22.3375 48.7625 22.825 49.2438C26.2375 54.0563 32.0875 56.9438 37.9375 56.9438C48.175 56.9438 56.4625 48.7625 56.4625 38.6562C56.4625 32.8812 53.5375 27.1062 48.6625 23.7375C47.2 22.775 46.7125 21.3313 47.2 19.8875C47.6875 18.4438 48.6625 17.4813 50.125 17C51.5875 17 52.5625 17 54.025 17C75.475 17 92.5375 33.8438 92.5375 55.0188C92.5375 76.1938 75.9625 92.5562 54.5125 92.5562ZM23.8 59.35C26.2375 73.7875 39.4 84.8563 54.5125 84.8563C71.575 84.8563 85.7125 70.9 85.7125 54.0563C85.7125 38.6563 74.5 26.1437 59.3875 23.7375C62.3125 28.0687 63.775 32.8813 63.775 37.6938C63.775 51.65 52.075 63.2 37.9375 63.2C33.0625 63.6813 28.1875 62.2375 23.8 59.35Z" fill="white"/>
</svg>
