<svg width="109" height="109" viewBox="0 0 109 109" fill="none" xmlns="http://www.w3.org/2000/svg">
<circle cx="54" cy="54" r="24.5" stroke="#2B2233" stroke-width="7"/>
<rect x="52" y="7" width="5" height="15" fill="#2B2233"/>
<rect x="52" y="7" width="5" height="15" fill="#2B2233"/>
<rect x="20.4286" y="19.9088" width="5.59524" height="14.5476" transform="rotate(-45 20.4286 19.9088)" fill="#2B2233"/>
<rect x="20.4286" y="19.9088" width="5.59524" height="14.5476" transform="rotate(-45 20.4286 19.9088)" fill="#2B2233"/>
<rect x="20.4286" y="19.9088" width="5.59524" height="14.5476" transform="rotate(-45 20.4286 19.9088)" fill="#2B2233"/>
<rect width="5.59524" height="14.5476" transform="matrix(0.707107 0.707107 0.707107 -0.707107 20.4286 88.9058)" fill="#2B2233"/>
<rect width="5.59524" height="14.5476" transform="matrix(-0.707107 -0.707107 -0.707107 0.707107 88.386 19.9088)" fill="#2B2233"/>
<rect x="88.0815" y="88.9058" width="5.59524" height="14.5476" transform="rotate(135 88.0815 88.9058)" fill="#2B2233"/>
<rect x="7" y="57" width="5" height="15" transform="rotate(-90 7 57)" fill="#2B2233"/>
<rect x="86" y="57" width="5" height="15" transform="rotate(-90 86 57)" fill="#2B2233"/>
<rect x="52" y="86" width="5" height="15" fill="#2B2233"/>
</svg>
